<?xml version="1.0" encoding="UTF-8" standalone="no"?>
<svg
   width="83"
   height="28"
   viewBox="0 0 83 28"
   fill="none"
   version="1.1"
   id="svg4"
   sodipodi:docname="S port It.svg"
   inkscape:export-filename="logo.svg"
   inkscape:export-xdpi="96"
   inkscape:export-ydpi="96"
   xmlns:inkscape="http://www.inkscape.org/namespaces/inkscape"
   xmlns:sodipodi="http://sodipodi.sourceforge.net/DTD/sodipodi-0.dtd"
   xmlns="http://www.w3.org/2000/svg"
   xmlns:svg="http://www.w3.org/2000/svg">
  <defs
     id="defs8">
    <clipPath
       id="clip0_2_96">
      <rect
         width="31"
         height="37"
         fill="#ffffff"
         id="rect137"
         x="0"
         y="0" />
    </clipPath>
  </defs>
  <sodipodi:namedview
     id="namedview6"
     pagecolor="#ffffff"
     bordercolor="#000000"
     borderopacity="0.25"
     inkscape:showpageshadow="2"
     inkscape:pageopacity="0.0"
     inkscape:pagecheckerboard="0"
     inkscape:deskcolor="#d1d1d1"
     showgrid="false" />
  <path
     d="m 5.944,0.967999 c 0.81067,0 1.536,0.074671 2.176,0.224001 0.64,0.14933 1.26933,0.384 1.888,0.704 L 9.016,3.784 C 8.44,3.50667 7.896,3.31467 7.384,3.208 6.89333,3.08 6.424,3.016 5.976,3.016 c -0.96,0 -1.73867,0.26667 -2.336,0.8 -0.59733,0.512 -0.896,1.20533 -0.896,2.08 0,0.96 0.32,1.77067 0.96,2.432 0.64,0.66133 1.32267,1.26933 2.048,1.824 1.51467,1.1093 2.64533,2.0907 3.392,2.944 0.74667,0.832 1.12,1.7813 1.12,2.848 v 1.376 l 0.896,1.76 C 10.3067,19.8053 9.35733,20.36 8.312,20.744 7.288,21.128 6.2,21.32 5.048,21.32 4.728,21.32 4.30133,21.2987 3.768,21.256 3.23467,21.2133 2.65867,21.1173 2.04,20.968 1.42133,20.7973 0.834667,20.552 0.28,20.232 l 0.896,-2.016 c 0.61867,0.3627 1.25867,0.6293 1.92,0.8 0.68267,0.1707 1.32267,0.256 1.92,0.256 0.61867,0 1.16267,-0.0747 1.632,-0.224 0.49067,-0.1493 0.94933,-0.3627 1.376,-0.64 V 16.2 c 0,-0.6187 -0.21333,-1.1733 -0.64,-1.664 C 6.97867,14.024 6.488,13.5547 5.912,13.128 5.35733,12.7013 4.84533,12.3067 4.376,11.944 3.71467,11.4107 3.08533,10.8667 2.488,10.312 1.89067,9.75733 1.4,9.128 1.016,8.424 0.653333,7.72 0.472,6.89867 0.472,5.96 0.472,4.33867 0.973333,3.10133 1.976,2.248 3,1.39467 4.32267,0.967999 5.944,0.967999 Z M 18.809,7.752 c 0.6613,-0.384 1.4507,-0.72533 2.368,-1.024 0.9387,-0.29867 1.9627,-0.448 3.072,-0.448 1.472,0 2.6453,0.36267 3.52,1.088 0.896,0.72533 1.536,1.664 1.92,2.816 0.4053,1.1307 0.608,2.336 0.608,3.616 0,1.28 -0.224,2.496 -0.672,3.648 -0.4267,1.1307 -1.088,2.0587 -1.984,2.784 -0.8747,0.7253 -1.9733,1.088 -3.296,1.088 -0.4693,0 -0.9067,-0.032 -1.312,-0.096 -0.4053,-0.064 -0.832,-0.16 -1.28,-0.288 v 6.816 H 19.705 V 9.384 Z m 2.944,11.136 c 0.2347,0.0853 0.544,0.192 0.928,0.32 0.384,0.128 0.8427,0.192 1.376,0.192 1.0453,0 1.8667,-0.288 2.464,-0.864 0.5973,-0.576 1.0133,-1.2907 1.248,-2.144 0.256,-0.8747 0.384,-1.7387 0.384,-2.592 0,-0.8533 -0.1173,-1.7067 -0.352,-2.56 C 27.5877,10.3653 27.1823,9.64 26.585,9.064 26.009,8.488 25.177,8.2 24.089,8.2 23.2143,8.2 22.4357,8.37067 21.753,8.712 Z M 33.4468,12.52 c 0,-0.4053 0.0106,-0.8853 0.032,-1.44 0.0213,-0.5547 0.1173,-1.13067 0.288,-1.728 0.192,-0.59733 0.5226,-1.152 0.992,-1.664 0.5973,-0.64 1.248,-1.03467 1.952,-1.184 0.7253,-0.14933 1.3546,-0.224 1.888,-0.224 0.5546,0 1.184,0.07467 1.888,0.224 0.704,0.14933 1.3546,0.544 1.952,1.184 0.4693,0.512 0.7893,1.06667 0.96,1.664 0.192,0.59733 0.2986,1.1733 0.32,1.728 0.0213,0.5547 0.032,1.0347 0.032,1.44 v 5.216 l 1.088,1.312 c -0.8534,0.7467 -1.792,1.312 -2.816,1.696 -1.024,0.384 -2.1654,0.576 -3.424,0.576 -1.2374,0 -2.2827,-0.1493 -3.136,-0.448 -0.832,-0.32 -1.504,-0.6507 -2.016,-0.992 z m 2.048,6.048 c 0.4906,0.3413 1.0133,0.5653 1.568,0.672 0.5546,0.1067 1.0666,0.16 1.536,0.16 0.4693,0 0.9813,-0.0533 1.536,-0.16 0.576,-0.1067 1.0986,-0.3307 1.568,-0.672 v -6.112 c 0,-0.4693 -0.032,-1.0027 -0.096,-1.6 -0.0427,-0.5973 -0.224,-1.12 -0.544,-1.568 C 40.9134,9.07467 40.6468,8.84 40.2628,8.584 39.8788,8.328 39.3241,8.2 38.5988,8.2 c -0.7254,0 -1.28,0.128 -1.664,0.384 -0.3627,0.256 -0.6294,0.49067 -0.8,0.704 -0.32,0.448 -0.512,0.9707 -0.576,1.568 -0.0427,0.5973 -0.064,1.1307 -0.064,1.6 z M 47.516,10.344 46.588,8.904 C 47.5267,8.11467 48.5613,7.528 49.692,7.144 50.844,6.73867 52.0067,6.45067 53.18,6.28 l 0.352,1.92 c -1.024,0.14933 -1.8453,0.33067 -2.464,0.544 -0.6187,0.192 -1.12,0.39467 -1.504,0.608 V 21 H 47.516 Z M 57.8058,2.76 V 6.6 h 3.04 v 1.984 h -3.04 v 4.128 c 0,0.5973 0.0106,1.2693 0.032,2.016 0.0426,0.7467 0.2666,1.4613 0.672,2.144 0.2986,0.4907 0.7573,1.0027 1.376,1.536 0.64,0.5333 1.2373,0.9707 1.792,1.312 l -1.216,1.6 c -0.6187,-0.3413 -1.248,-0.768 -1.888,-1.28 -0.6187,-0.512 -1.1307,-1.0453 -1.536,-1.6 -0.576,-0.8107 -0.9387,-1.6213 -1.088,-2.432 -0.128,-0.832 -0.192,-1.6533 -0.192,-2.464 V 4.776 L 55.1178,2.76 Z M 70.115,1.288 h 2.272 V 21 H 70.115 Z M 78.1808,2.76 V 6.6 h 3.04 v 1.984 h -3.04 v 4.128 c 0,0.5973 0.0106,1.2693 0.032,2.016 0.0426,0.7467 0.2666,1.4613 0.672,2.144 0.2986,0.4907 0.7573,1.0027 1.376,1.536 0.64,0.5333 1.2373,0.9707 1.792,1.312 l -1.216,1.6 c -0.6187,-0.3413 -1.248,-0.768 -1.888,-1.28 -0.6187,-0.512 -1.1307,-1.0453 -1.536,-1.6 -0.576,-0.8107 -0.9387,-1.6213 -1.088,-2.432 -0.128,-0.832 -0.192,-1.6533 -0.192,-2.464 V 4.776 l -0.64,-2.016 z"
     fill="white"
     id="path2"
     style="fill:#ffffff" />
  <g
     clip-path="url(#clip0_2_96)"
     id="g135"
     transform="matrix(0.58141829,0,0,0.63069011,5.141661,0.36689496)">
    <path
       d="M 9.45087,11.2801 14.0909,5.74195 V 35.3182 C 14.0909,36.247 14.7218,37 15.5,37 c 0.7782,0 1.4091,-0.753 1.4091,-1.6818 V 5.74195 l 4.64,5.53815 c 0.2751,0.3284 0.6357,0.4926 0.9964,0.4926 0.3606,0 0.7212,-0.1642 0.9963,-0.4926 0.5503,-0.6567 0.5503,-1.72166 0,-2.37847 L 16.4963,0.492544 c -0.5502,-0.656807 -1.4424,-0.656807 -1.9927,0 L 7.45813,8.90163 c -0.55029,0.6567 -0.55029,1.72167 0,2.37847 0.5503,0.6567 1.44254,0.6567 1.99274,0 z"
       fill="#ffffff"
       id="path133"
       style="fill:#ffffff" />
  </g>
</svg>
